<svg width="61" height="61" viewBox="0 0 61 61" fill="none" xmlns="http://www.w3.org/2000/svg">
<g id="mdi:brush">
<path id="Vector" d="M52.6386 11.7679L49.2327 8.36209C48.2923 7.37084 46.6402 7.37084 45.649 8.36209L22.8757 31.1354L29.8652 38.125L52.6386 15.3517C53.6298 14.3604 53.6298 12.7083 52.6386 11.7679ZM17.7923 35.5833C15.77 35.5833 13.8306 36.3867 12.4006 37.8167C10.9707 39.2466 10.1673 41.1861 10.1673 43.2083C10.1673 46.5379 7.21898 48.2917 5.08398 48.2917C7.42232 51.3925 11.4382 53.375 15.2507 53.375C17.947 53.375 20.533 52.3039 22.4396 50.3973C24.3462 48.4906 25.4173 45.9047 25.4173 43.2083C25.4173 41.1861 24.614 39.2466 23.184 37.8167C21.754 36.3867 19.8146 35.5833 17.7923 35.5833Z" fill="#2091F9"/>
</g>
</svg>
