<svg width="57" height="56" viewBox="0 0 57 56" fill="none" xmlns="http://www.w3.org/2000/svg">
<g id="mdi:draw">
<path id="Vector" d="M23.2506 48.6502C27.4039 47.0168 26.4939 42.5135 24.3939 39.6668C22.3173 36.7502 19.4473 34.7435 16.5539 32.8068C14.4895 31.5057 12.6463 29.883 11.0939 28.0002C10.4406 27.2302 9.11059 25.8068 10.4639 25.5268C11.8406 25.2468 14.2206 26.6002 15.4339 27.1135C17.5573 28.0002 19.6573 29.0268 21.6173 30.2402L23.9739 26.2735C20.3339 23.8702 15.6673 21.7468 11.3273 21.1168C8.85392 20.7435 6.24059 21.2568 5.40059 23.9402C4.65392 26.2502 5.84392 28.5835 7.19725 30.4035C10.3939 34.6735 15.3639 36.7268 19.0739 40.4135C19.8673 41.1835 20.8239 42.0935 21.2906 43.1668C21.7806 44.1935 21.6639 44.2635 20.5673 44.2635C17.6739 44.2635 14.0573 42.0002 11.7006 40.5068L9.34392 44.4735C12.9139 46.6668 18.8873 50.0968 23.2506 48.6502ZM49.1273 12.2502C49.6406 11.7368 49.6406 10.8968 49.1273 10.4068L46.0939 7.37349C45.8495 7.13795 45.5233 7.00635 45.1839 7.00635C44.8445 7.00635 44.5183 7.13795 44.2739 7.37349L41.8939 9.75349L46.7473 14.6068L49.1273 12.2502ZM26.1673 25.4802V30.3335H31.0206L45.3706 15.9835L40.5173 11.1302L26.1673 25.4802Z" fill="#2091F9"/>
</g>
</svg>
