<svg width="42" height="42" viewBox="0 0 42 42" fill="none" xmlns="http://www.w3.org/2000/svg">
<g id="ant-design:facebook-filled">
<path id="Vector" d="M35.7106 5.38525H6.25153C5.54307 5.38525 4.9707 5.95763 4.9707 6.66609V36.1252C4.9707 36.8337 5.54307 37.406 6.25153 37.406H35.7106C36.4191 37.406 36.9915 36.8337 36.9915 36.1252V6.66609C36.9915 5.95763 36.4191 5.38525 35.7106 5.38525ZM32.0122 14.7313H29.4546C27.4493 14.7313 27.061 15.6839 27.061 17.0848V20.1708H31.8481L31.2237 25.002H27.061V37.406H22.0698V25.006H17.8951V20.1708H22.0698V16.6085C22.0698 12.4739 24.5954 10.2204 28.2858 10.2204C30.055 10.2204 31.572 10.3525 32.0163 10.4125V14.7313H32.0122Z" fill="#2091F9"/>
</g>
</svg>
