<svg width="42" height="42" viewBox="0 0 42 42" fill="none" xmlns="http://www.w3.org/2000/svg">
<g id="ant-design:facebook-filled">
<path id="Vector" d="M35.7517 4.98975H6.29255C5.58409 4.98975 5.01172 5.56212 5.01172 6.27058V35.7297C5.01172 36.4382 5.58409 37.0105 6.29255 37.0105H35.7517C36.4601 37.0105 37.0325 36.4382 37.0325 35.7297V6.27058C37.0325 5.56212 36.4601 4.98975 35.7517 4.98975ZM32.0533 14.3358H29.4956C27.4903 14.3358 27.1021 15.2884 27.1021 16.6893V19.7753H31.8892L31.2648 24.6065H27.1021V37.0105H22.1108V24.6105H17.9361V19.7753H22.1108V16.213C22.1108 12.0783 24.6365 9.82488 28.3268 9.82488C30.096 9.82488 31.613 9.95697 32.0573 10.017V14.3358H32.0533Z" fill="white"/>
</g>
</svg>
