<svg width="194" height="64" viewBox="0 0 194 64" fill="none" xmlns="http://www.w3.org/2000/svg">
<g id="logos:google" clip-path="url(#clip0_78_310)">
<path id="Vector" d="M187.716 38.8052L193.07 42.3561C191.332 44.9023 187.176 49.2711 179.99 49.2711C171.067 49.2711 164.422 42.4029 164.422 33.6658C164.422 24.3684 171.138 18.0609 179.239 18.0609C187.387 18.0609 191.379 24.5083 192.671 27.9891L193.375 29.7647L172.382 38.4081C173.979 41.5386 176.468 43.1271 179.99 43.1271C183.513 43.1271 185.955 41.3983 187.716 38.8052ZM171.255 33.1757L185.274 27.3819C184.499 25.4432 182.198 24.0651 179.45 24.0651C175.952 24.0651 171.091 27.1487 171.255 33.1757Z" fill="#FF302F"/>
<path id="Vector_2" d="M154.303 2.15239H161.065V47.8461H154.303V2.15202V2.15239Z" fill="#20B15A"/>
<path id="Vector_3" d="M143.641 19.2756H150.169V47.0282C150.169 58.5448 143.336 63.2871 135.258 63.2871C127.65 63.2871 123.071 58.1946 121.356 54.0598L127.344 51.5833C128.424 54.1296 131.031 57.1434 135.258 57.1434C140.447 57.1434 143.641 53.9428 143.641 47.9627V45.7202H143.406C141.856 47.5888 138.898 49.2707 135.14 49.2707C127.297 49.2707 120.111 42.4727 120.111 33.7127C120.111 24.9054 127.297 18.0377 135.14 18.0377C138.874 18.0377 141.856 19.6963 143.406 21.5184H143.641V19.2759V19.2756ZM144.11 33.7127C144.11 28.1994 140.424 24.1813 135.727 24.1813C130.984 24.1813 126.992 28.1994 126.992 33.7127C126.992 39.1554 130.984 43.1034 135.727 43.1034C140.424 43.1271 144.111 39.1554 144.111 33.7127H144.11Z" fill="#3686F7"/>
<path id="Vector_4" d="M82.9856 33.5957C82.9856 42.5897 75.9411 49.2006 67.2994 49.2006C58.6582 49.2006 51.6133 42.5664 51.6133 33.5957C51.6133 24.5552 58.6582 17.9676 67.2994 17.9676C75.9411 17.9676 82.9856 24.5552 82.9856 33.5957ZM76.1288 33.5957C76.1288 27.9895 72.0426 24.1345 67.2994 24.1345C62.5562 24.1345 58.4701 27.9895 58.4701 33.5957C58.4701 39.1555 62.5562 43.0569 67.2994 43.0569C72.043 43.0569 76.1288 39.1555 76.1288 33.5957Z" fill="#FF302F"/>
<path id="Vector_5" d="M117.247 33.6658C117.247 42.6598 110.202 49.2707 101.561 49.2707C92.9195 49.2707 85.875 42.6594 85.875 33.6658C85.875 24.6253 92.9195 18.0609 101.561 18.0609C110.202 18.0609 117.247 24.6021 117.247 33.6658ZM110.367 33.6658C110.367 28.0596 106.281 24.2046 101.537 24.2046C96.7942 24.2046 92.708 28.0596 92.708 33.6658C92.708 39.2256 96.7942 43.1271 101.537 43.1271C106.304 43.1271 110.367 39.2023 110.367 33.6658Z" fill="#FFBA40"/>
<path id="Vector_6" d="M25.8306 42.4262C15.9914 42.4262 8.28949 34.5302 8.28949 24.742C8.28949 14.9541 15.9914 7.05807 25.8306 7.05807C31.1377 7.05807 35.0121 9.13708 37.8769 11.8003L42.5971 7.10495C38.6052 3.2972 33.2747 0.399948 25.8306 0.399948C12.3519 0.400323 1.00977 11.3334 1.00977 24.742C1.00977 38.1512 12.3519 49.084 25.8306 49.084C33.1103 49.084 38.6052 46.7012 42.9025 42.2627C47.317 37.8707 48.6789 31.7035 48.6789 26.7043C48.6789 25.1391 48.4912 23.5273 48.2797 22.336H25.8306V28.8302H41.8221C41.3524 32.8952 40.061 35.6751 38.1589 37.567C35.8576 39.88 32.2181 42.4262 25.8306 42.4262Z" fill="#3686F7"/>
</g>
<defs>
<clipPath id="clip0_78_310">
<rect width="193" height="63" fill="white" transform="translate(0.728516 0.303223)"/>
</clipPath>
</defs>
</svg>
