<svg width="151" height="61" viewBox="0 0 151 61" fill="none" xmlns="http://www.w3.org/2000/svg">
<g id="logos:ibm" clip-path="url(#clip0_78_365)">
<path id="Vector" d="M0.572266 0.303223V4.4043H29.741V0.303223H0.572266ZM33.8737 0.303223V4.4043H75.4406C75.4406 4.4043 71.1946 0.303223 65.5713 0.303223H33.8737ZM83.5947 0.303223V4.4043H108.742L107.249 0.303223H83.5947ZM126.771 0.303223L125.279 4.4043H150.198V0.303223H126.771ZM0.572266 8.27883V12.3799H29.741V8.27883H0.572266ZM33.8737 8.28469V12.3799H80.264C80.264 12.3799 79.7222 9.22361 78.7771 8.28469H33.8737ZM83.5947 8.28469V12.3799H111.499L110.118 8.28469H83.5947ZM123.786 8.28469L122.404 12.3799H150.198V8.28469H123.786ZM8.9547 16.2544V20.3608H21.5869V16.2544H8.9547ZM42.2562 16.2544V20.3608H54.8884V16.2544H42.2562ZM67.1752 16.2544V20.3608H79.8074C79.8074 20.3608 80.6093 18.192 80.6093 16.2541H67.1752V16.2544ZM91.9771 16.2544V20.3608H114.373L112.881 16.2541H91.9771V16.2544ZM121.035 16.2544L119.536 20.3611H142.043V16.2544H121.035ZM8.9547 24.2359V28.3364H21.5869V24.2359H8.9547ZM42.2562 24.2359V28.3364H74.5215C74.5215 28.3364 77.2207 26.232 78.0806 24.2353H42.2562V24.2359ZM91.9771 24.2359V28.3364H104.609V26.0535L105.411 28.3364H128.551L129.411 26.0535V28.3364H142.043V24.2359H118.33L117.072 27.7098L115.807 24.2359H91.9771ZM8.9547 32.2109V36.312H21.5869V32.2109H8.9547ZM42.2562 32.2109V36.312H78.0806C77.2204 34.3218 74.5215 32.2109 74.5215 32.2109H42.2562ZM91.9771 32.2109V36.312H104.609V32.2109H91.9771ZM106.904 32.2109L108.432 36.312H125.782L127.234 32.2109H106.904ZM129.411 32.2109V36.312H142.043V32.2109H129.411ZM8.9547 40.1865V44.2876H21.5869V40.1865H8.9547ZM42.2562 40.1865V44.2876H54.8884V40.1865H42.2562ZM67.1752 40.1865V44.2876H80.6093C80.6093 42.3521 79.8074 40.1865 79.8074 40.1865H67.1752ZM91.9771 40.1865V44.2876H104.609V40.1865H91.9771ZM109.772 40.1865L111.253 44.2876H122.884L124.377 40.1865H109.772ZM129.411 40.1865V44.2876H142.043V40.1865H129.411ZM0.800558 48.1624V52.2691H29.9693V48.1621H0.800558V48.1624ZM33.8737 48.1624V52.2691H78.7771C79.7222 51.3287 80.264 48.1621 80.264 48.1621H33.8737V48.1624ZM83.823 48.1624V52.2691H104.609V48.1621H83.823V48.1624ZM112.646 48.1624L114.168 52.2691H120.086L121.515 48.1621H112.646V48.1624ZM129.411 48.1624V52.2691H150.426V48.1621H129.411V48.1624ZM0.800558 56.1436V60.2447H29.9693V56.1436H0.800558ZM33.8737 56.1436V60.2385H65.5713C71.1946 60.2385 75.4406 56.1433 75.4406 56.1433H33.8737V56.1436ZM83.823 56.1436V60.2447H104.609V56.1436H83.823ZM115.532 56.1436L116.996 60.2327L117.247 60.2385L118.734 56.1433H115.532V56.1436ZM129.411 56.1436V60.2447H150.426V56.1436H129.411Z" fill="#1F70C1"/>
</g>
<defs>
<clipPath id="clip0_78_365">
<rect width="149.854" height="60" fill="white" transform="translate(0.572266 0.303223)"/>
</clipPath>
</defs>
</svg>
