<svg width="42" height="42" viewBox="0 0 42 42" fill="none" xmlns="http://www.w3.org/2000/svg">
<g id="ant-design:linkedin-filled">
<path id="Vector" d="M35.738 4.98975H6.27888C5.57042 4.98975 4.99805 5.56212 4.99805 6.27058V35.7297C4.99805 36.4382 5.57042 37.0105 6.27888 37.0105H35.738C36.4465 37.0105 37.0188 36.4382 37.0188 35.7297V6.27058C37.0188 5.56212 36.4465 4.98975 35.738 4.98975ZM14.4962 32.2755H9.74513V16.9935H14.4962V32.2755ZM12.1227 14.9042C11.578 14.9042 11.0456 14.7427 10.5927 14.4401C10.1399 14.1375 9.78693 13.7074 9.5785 13.2042C9.37007 12.701 9.31554 12.1473 9.4218 11.6132C9.52805 11.079 9.79032 10.5883 10.1754 10.2032C10.5606 9.81805 11.0513 9.55577 11.5854 9.44952C12.1196 9.34326 12.6733 9.3978 13.1765 9.60622C13.6797 9.81465 14.1098 10.1676 14.4124 10.6205C14.7149 11.0733 14.8765 11.6057 14.8765 12.1504C14.8725 13.6714 13.6397 14.9042 12.1227 14.9042ZM32.2838 32.2755H27.5367V24.8426C27.5367 23.0695 27.5047 20.792 25.0671 20.792C22.5975 20.792 22.2172 22.7213 22.2172 24.7145V32.2755H17.4741V16.9935H22.0291V19.0829H22.0931C22.7255 17.8821 24.2746 16.6133 26.5881 16.6133C31.3992 16.6133 32.2838 19.7793 32.2838 23.894V32.2755V32.2755Z" fill="white"/>
</g>
</svg>
