<svg width="46" height="47" viewBox="0 0 46 47" fill="none" xmlns="http://www.w3.org/2000/svg">
<g id="bx:bx-map">
<path id="Vector" d="M23.0007 27.1366C27.2288 27.1366 30.6673 23.6981 30.6673 19.4699C30.6673 15.2417 27.2288 11.8032 23.0007 11.8032C18.7725 11.8032 15.334 15.2417 15.334 19.4699C15.334 23.6981 18.7725 27.1366 23.0007 27.1366ZM23.0007 15.6366C25.1147 15.6366 26.834 17.3558 26.834 19.4699C26.834 21.584 25.1147 23.3032 23.0007 23.3032C20.8866 23.3032 19.1673 21.584 19.1673 19.4699C19.1673 17.3558 20.8866 15.6366 23.0007 15.6366Z" fill="white"/>
<path id="Vector_2" d="M21.8879 42.1133C22.2122 42.345 22.6009 42.4695 22.9995 42.4695C23.3981 42.4695 23.7868 42.345 24.1112 42.1133C24.6939 41.7012 38.3884 31.8131 38.3329 19.4698C38.3329 11.0154 31.4539 4.13647 22.9995 4.13647C14.5451 4.13647 7.66618 11.0154 7.66618 19.4602C7.6106 31.8131 21.3052 41.7012 21.8879 42.1133ZM22.9995 7.96981C29.3418 7.96981 34.4995 13.1276 34.4995 19.4794C34.5398 27.9856 26.0892 35.6235 22.9995 38.1286C19.9118 35.6216 11.4593 27.9817 11.4995 19.4698C11.4995 13.1276 16.6573 7.96981 22.9995 7.96981Z" fill="white"/>
</g>
</svg>
