<svg width="42" height="42" viewBox="0 0 42 42" fill="none" xmlns="http://www.w3.org/2000/svg">
<g id="ant-design:twitter-outlined">
<path id="Vector" d="M37.6865 10.6853C36.4617 11.2136 35.1288 11.5939 33.7559 11.742C35.1813 10.8952 36.2487 9.55736 36.7579 7.97954C35.4203 8.77521 33.9551 9.33315 32.4271 9.62861C31.7884 8.94587 31.016 8.40197 30.158 8.0308C29.3 7.65963 28.3747 7.46914 27.4398 7.47121C23.6574 7.47121 20.6154 10.5372 20.6154 14.2996C20.6154 14.828 20.6794 15.3563 20.7835 15.8647C15.1198 15.5685 10.0685 12.8627 6.71037 8.72002C6.09847 9.76516 5.77782 10.9552 5.78177 12.1663C5.78177 14.5358 6.98655 16.6251 8.82374 17.8539C7.74106 17.8113 6.68372 17.5137 5.73774 16.9854V17.0694C5.73774 20.3876 8.08326 23.1374 11.2093 23.7698C10.6223 23.9222 10.0185 24.0002 9.41212 24.0019C8.96784 24.0019 8.54756 23.9579 8.12329 23.8979C8.98785 26.6036 11.5055 28.5689 14.5034 28.6329C12.1579 30.4701 9.22 31.5508 6.02993 31.5508C5.45756 31.5508 4.92922 31.5308 4.38086 31.4668C7.40682 33.408 10.9972 34.5288 14.8637 34.5288C27.4158 34.5288 34.2843 24.13 34.2843 15.1042C34.2843 14.808 34.2843 14.5118 34.2642 14.2156C35.5931 13.243 36.7579 12.0382 37.6865 10.6853Z" fill="white"/>
</g>
</svg>
