<svg width="42" height="42" viewBox="0 0 42 42" fill="none" xmlns="http://www.w3.org/2000/svg">
<g id="ant-design:twitter-outlined">
<path id="Vector" d="M37.6455 11.081C36.4207 11.6094 35.0878 11.9896 33.7149 12.1377C35.1403 11.2909 36.2077 9.95311 36.7168 8.37529C35.3793 9.17096 33.914 9.7289 32.386 10.0244C31.7474 9.34162 30.975 8.79772 30.117 8.42655C29.2589 8.05538 28.3337 7.86489 27.3988 7.86696C23.6163 7.86696 20.5744 10.9329 20.5744 14.6954C20.5744 15.2237 20.6384 15.7521 20.7425 16.2604C15.0788 15.9642 10.0275 13.2585 6.66936 9.11577C6.05746 10.1609 5.7368 11.3509 5.74075 12.562C5.74075 14.9315 6.94553 17.0209 8.78273 18.2497C7.70004 18.2071 6.64271 17.9095 5.69672 17.3811V17.4652C5.69672 20.7833 8.04225 23.5331 11.1683 24.1655C10.5813 24.318 9.97753 24.396 9.37111 24.3977C8.92682 24.3977 8.50655 24.3537 8.08227 24.2936C8.94683 26.9994 11.4645 28.9647 14.4624 29.0287C12.1169 30.8659 9.17898 31.9466 5.98891 31.9466C5.41654 31.9466 4.8882 31.9266 4.33984 31.8625C7.36581 33.8038 10.9561 34.9245 14.8226 34.9245C27.3748 34.9245 34.2432 24.5258 34.2432 15.4999C34.2432 15.2037 34.2432 14.9075 34.2232 14.6113C35.5521 13.6387 36.7168 12.4339 37.6455 11.081Z" fill="#2091F9"/>
</g>
</svg>
